<?xml version="1.0" encoding="UTF-8" standalone="no"?>
<!-- Created with Inkscape (http://www.inkscape.org/) -->

<svg
   width="241mm"
   height="476mm"
   viewBox="0 0 241 476"
   version="1.1"
   id="svg1"
   xml:space="preserve"
   sodipodi:docname="iphone.svg"
   inkscape:version="1.4.2 (f4327f4, 2025-05-13)"
   xmlns:inkscape="http://www.inkscape.org/namespaces/inkscape"
   xmlns:sodipodi="http://sodipodi.sourceforge.net/DTD/sodipodi-0.dtd"
   xmlns:xlink="http://www.w3.org/1999/xlink"
   xmlns="http://www.w3.org/2000/svg"
   xmlns:svg="http://www.w3.org/2000/svg"><sodipodi:namedview
     id="namedview1"
     pagecolor="#ffffff"
     bordercolor="#000000"
     borderopacity="0.25"
     inkscape:showpageshadow="2"
     inkscape:pageopacity="0.0"
     inkscape:pagecheckerboard="0"
     inkscape:deskcolor="#d1d1d1"
     inkscape:document-units="mm"
     inkscape:zoom="0.35945917"
     inkscape:cx="27.819571"
     inkscape:cy="1153.1212"
     inkscape:window-width="1920"
     inkscape:window-height="1009"
     inkscape:window-x="-8"
     inkscape:window-y="-8"
     inkscape:window-maximized="1"
     inkscape:current-layer="g45" /><defs
     id="defs1"><inkscape:path-effect
       effect="taper_stroke"
       start_shape="center | center"
       end_shape="center | center"
       id="path-effect31"
       is_visible="true"
       lpeversion="1"
       stroke_width="0.26"
       subpath="1"
       attach_start="0.2"
       end_offset="0.3"
       start_smoothing="0.4"
       end_smoothing="0.6"
       jointype="extrapolated"
       miter_limit="100" /><inkscape:path-effect
       effect="bspline"
       id="path-effect30"
       is_visible="true"
       lpeversion="1.3"
       weight="33.333333"
       steps="2"
       helper_size="0"
       apply_no_weight="true"
       apply_with_weight="true"
       only_selected="false"
       uniform="false" /><inkscape:path-effect
       effect="taper_stroke"
       start_shape="center | center"
       end_shape="center | center"
       id="path-effect28"
       is_visible="true"
       lpeversion="1"
       stroke_width="0.06"
       subpath="1"
       attach_start="0.5"
       end_offset="0.2"
       start_smoothing="0.8"
       end_smoothing="1.7"
       jointype="extrapolated"
       miter_limit="100" /><inkscape:path-effect
       effect="bend_path"
       id="path-effect27"
       is_visible="true"
       lpeversion="1"
       bendpath="M 83.915808,-78.827489 H 125.82798"
       prop_scale="1.06"
       scale_y_rel="false"
       vertical="false"
       hide_knot="false" /><inkscape:path-effect
       effect="interpolate_points"
       id="path-effect26"
       is_visible="true"
       lpeversion="1"
       interpolator_type="CentripetalCatmullRom" /><inkscape:path-effect
       effect="bspline"
       id="path-effect25"
       is_visible="true"
       lpeversion="1.3"
       weight="33.333333"
       steps="2"
       helper_size="0"
       apply_no_weight="true"
       apply_with_weight="true"
       only_selected="false"
       uniform="false" /><linearGradient
       id="linearGradient22"
       inkscape:collect="always"><stop
         style="stop-color:#00ff00;stop-opacity:1;"
         offset="0"
         id="stop22" /><stop
         style="stop-color:#00c3ff;stop-opacity:0;"
         offset="1"
         id="stop23" /></linearGradient><inkscape:path-effect
       effect="spiro"
       id="path-effect17"
       is_visible="true"
       lpeversion="1" /><inkscape:path-effect
       effect="spiro"
       id="path-effect16"
       is_visible="true"
       lpeversion="1" /><linearGradient
       id="swatch16"
       inkscape:swatch="solid"><stop
         style="stop-color:#000000;stop-opacity:1;"
         offset="0"
         id="stop16" /></linearGradient><inkscape:path-effect
       effect="bspline"
       id="path-effect15"
       is_visible="true"
       lpeversion="1.3"
       weight="33.333333"
       steps="2"
       helper_size="0"
       apply_no_weight="true"
       apply_with_weight="true"
       only_selected="false"
       uniform="false" /><radialGradient
       inkscape:collect="always"
       xlink:href="#linearGradient22"
       id="radialGradient23"
       cx="70.770874"
       cy="-66.326698"
       fx="70.770874"
       fy="-66.326698"
       r="2.5063069"
       gradientUnits="userSpaceOnUse"
       gradientTransform="translate(-14.905204,-22.265799)" /><inkscape:path-effect
       effect="fill_between_many"
       method="bsplinespiro"
       autoreverse="false"
       close="false"
       join="false"
       linkedpaths="#path25,0,1"
       id="path-effect29"
       is_visible="true"
       lpeversion="0" /><inkscape:path-effect
       effect="fill_between_many"
       method="bsplinespiro"
       autoreverse="false"
       close="false"
       join="false"
       linkedpaths="#path30,0,1"
       id="path-effect32"
       is_visible="true"
       lpeversion="0" /></defs><g
     inkscape:label="Слой 1"
     inkscape:groupmode="layer"
     id="g45"
     transform="matrix(1.0157773,0,0,1.00445,15.991671,90.325807)"
     style="fill:#808080"><rect
       style="opacity:1;fill:#808080;stroke-width:0.264583"
       id="rect29"
       width="2.7388506"
       height="19.223633"
       x="-10.793029"
       y="-11.661141"
       ry="1.1217461"
       inkscape:label="button left" /><rect
       style="opacity:1;fill:#808080;stroke-width:0.264583"
       id="rect30"
       width="2.1193638"
       height="38.587036"
       x="-10.889145"
       y="25.797773"
       ry="1.0596819"
       inkscape:label="button left" /><rect
       style="opacity:1;fill:#808080;stroke-width:0.264583"
       id="rect31"
       width="1.9001193"
       height="39.025528"
       x="-10.742982"
       y="75.566284"
       ry="0.95005965"
       inkscape:label="button left" /><rect
       style="opacity:1;fill:#808080;stroke-width:0.264583"
       id="rect32"
       width="1.8270345"
       height="61.826954"
       x="218.20381"
       y="39.317852"
       ry="0.95005965"
       inkscape:label="button right" /><rect
       style="opacity:1;fill:#808080;stroke-width:0.264583"
       id="rect33"
       width="227.54324"
       height="467.77286"
       x="-8.8373003"
       y="-85.222412"
       ry="36.1735"
       inkscape:label="border" /><rect
       style="opacity:1;fill:#808080;stroke-width:0.264583"
       id="rect34"
       width="220.63721"
       height="459.51593"
       x="-5.5486321"
       y="-81.202934"
       ry="31.832682"
       inkscape:label="screen" /><rect
       style="opacity:1;fill:#808080;stroke-width:0.264583"
       id="rect35"
       width="39.480797"
       height="2.8938777"
       x="85.162758"
       y="-80.460205"
       ry="1.188558"
       inkscape:label="Динамик" /><rect
       style="opacity:1;fill:#808080;stroke-width:0.264583"
       id="rect36"
       width="5.4811134"
       height="4.0925646"
       x="169.40295"
       y="-85.286118"
       ry="0" /><rect
       style="opacity:1;fill:#808080;stroke-width:0.264583"
       id="rect37"
       width="3.6173501"
       height="5.3226724"
       x="215.0773"
       y="-38.834839" /><rect
       style="opacity:1;fill:#808080;stroke-width:0.264583"
       id="rect38"
       width="3.6175346"
       height="5.371491"
       x="215.07889"
       y="331.35156" /><rect
       style="opacity:1;fill:#808080;stroke-width:0.264583"
       id="rect39"
       width="5.371491"
       height="4.2021871"
       x="35.115665"
       y="378.34299" /><rect
       style="opacity:1;fill:#808080;stroke-width:0.264583"
       id="rect40"
       width="3.2556155"
       height="5.2709961"
       x="-8.810832"
       y="331.40097" /><rect
       style="opacity:1;fill:#808080;stroke-width:0.264583"
       id="rect41"
       width="3.3072915"
       height="5.3743491"
       x="-8.8883467"
       y="-38.809002" /><circle
       style="opacity:1;fill:#808080"
       id="circle41"
       cx="70.770874"
       cy="-66.326698"
       r="2.5063069" /><g
       style="fill:#808080"
       id="g41"
       transform="matrix(0.48256164,0,0,0.51427827,180.46465,-82.294278)"><path
         fill-rule="evenodd"
         clip-rule="evenodd"
         d="M 4.2565888,40.607388 C 0.83097892,36.896763 -6.2111254,36.872872 -9.6798768,40.613321 L -11.493621,38.9217 C -7.0552853,34.318884 1.6927944,34.347772 6.0816596,38.91139 Z m -1.4413012,1.33945 -1.83423239,1.704684 c -1.67649292,-2.207953 -5.70024361,-2.227316 -7.41005061,-0.0064 l -1.8214061,-1.698594 c 2.6997127,-3.066353 8.40445371,-3.0434 11.0656891,3.12e-4 z m -3.41111896,3.170146 -2.13105324,1.980443 -2.1415475,-1.99715 c 0.8233394,-1.541976 3.4854074,-1.523239 4.27260074,0.0167 z"
         fill="#000000"
         id="path41"
         style="fill:#808080;stroke-width:0.161275" /></g><text
       xml:space="preserve"
       style="font-style:normal;font-variant:normal;font-weight:normal;font-stretch:normal;font-size:8.46667px;line-height:0;font-family:'Comic Sans MS';-inkscape-font-specification:'Comic Sans MS';text-align:start;writing-mode:lr-tb;direction:ltr;text-anchor:start;white-space:pre;inline-size:32.184;display:inline;opacity:1;fill:#808080;fill-opacity:1"
       x="19.732008"
       y="-63.43475"
       id="text41"
       transform="translate(-2.620547,5.3697854)"><tspan
         x="19.732008"
         y="-63.43475"
         id="tspan3">8:26</tspan></text><g
       id="g42"
       transform="matrix(0.38491332,0,0,0.3470021,162.61219,-65.161755)"
       style="fill:#808080"><path
         d="m 15.553,13.5 -5.053,8 h -2 l 2.526,-8 H 5.666 L 4,16.5 H 2.5 L 3.5,12 2.5,7.5 H 4 l 1.667,3 h 5.36 L 8.5,2.5 h 2 l 5.053,8 H 21 a 1.5,1.5 0 0 1 0,3 z"
         id="path42"
         style="fill:#808080" /></g><rect
       style="fill:#808080;fill-opacity:1;stroke:#000000;stroke-width:0.269999;stroke-dasharray:none;stroke-opacity:1"
       id="rect42"
       width="73.467949"
       height="3.2432716"
       x="68.292519"
       y="363.86639"
       ry="1.0121177"
       rx="0" /><g
       style="display:inline;fill:#808080"
       id="g44"
       transform="matrix(0.49842253,0,0,0.58248817,184.85388,-70.510289)"><path
         id="path43"
         style="fill:#808080"
         d="m 5.0003907,10.999752 c -1.105,0 -1.9999866,0.896561 -1.9999866,2.000561 v 6.999749 c 0,1.104 0.8949866,1.999674 1.9999866,1.999674 H 25.000257 c 1.104,0 1.999987,-0.895674 1.999987,-1.999674 v -0.999838 h 0.999475 c 0.552,0 1.000511,-0.447837 1.000511,-0.999837 v -3.000399 c 0,-0.553 -0.448511,-0.999837 -1.000511,-0.999837 h -0.999475 v -0.999838 c 0,-1.104 -0.895987,-2.000561 -1.999987,-2.000561 z m 0,0.999837 H 25.000257 c 0.552,0 0.999475,0.447724 0.999475,1.000724 v 6.999749 c 0,0.552 -0.447475,0.999837 -0.999475,0.999837 H 5.0003907 c -0.553,0 -1.0005117,-0.447837 -1.0005117,-0.999837 v -6.999749 c 0,-0.553 0.4475117,-1.000724 1.0005117,-1.000724 z m 0.2654207,1.000724 c -0.046393,0.09358 -0.086794,0.189434 -0.1275263,0.284781 -0.056349,0.137944 -0.1010068,0.278459 -0.1378944,0.420517 v 3.342846 c 0.036937,0.182946 0.079441,0.365383 0.1316736,0.545607 0.062999,0.217181 0.094363,0.29761 0.1689983,0.512783 0.1908822,0.501653 0.4118904,0.995047 0.6500734,1.481569 0.016262,0.01605 0.032301,0.032 0.04873,0.04791 0.065221,0.01268 0.1307157,0.02535 0.1959552,0.03726 0.1466731,0.02681 0.2284557,0.0409 0.3431807,0.06033 -0.00413,-0.0489 0.046324,-0.09464 0.1441151,-0.09226 0.012519,3.04e-4 0.026351,0.0016 0.040435,0.0035 0.00348,4.9e-4 0.00689,0.0013 0.010368,0.0018 -0.023854,-0.0056 -0.047661,-0.01144 -0.071539,-0.01686 -0.2207966,-0.05006 -0.1616593,-0.240957 0.059098,-0.190741 0.316017,0.07187 0.6317672,0.155107 0.9237886,0.283006 0.00286,0.0016 0.00551,0.0029 0.00829,0.0044 0.025413,-0.03042 0.078542,-0.05293 0.1575935,-0.05146 0.3298206,0.0062 0.6595271,0.01248 0.9891069,0.02484 0.5559942,0.0216 1.1116448,0.05074 1.666137,0.09227 0.177902,0.01181 0.35586,0.02332 0.533952,0.03282 v -6.824977 z m -0.2654207,4.936198 v 0.204048 c 0.043959,0.01243 0.084749,0.05345 0.097459,0.126865 0.016653,0.09543 0.035727,0.190123 0.07465,0.281232 0.038321,0.0885 0.056531,0.137007 0.1036799,0.223566 0.044808,0.08235 0.097606,0.161362 0.1544832,0.237761 C 5.3055934,18.730524 5.187356,18.448489 5.0791875,18.163626 5.0467664,18.070012 5.0225061,18.001634 5.0003907,17.936511 Z m 0,0.783369 v 0.307846 c 0.028041,0.01621 0.055094,0.0431 0.076723,0.08162 0.021037,0.0375 0.043534,0.07464 0.067392,0.110896 0.00302,-0.0037 0.00627,-0.0078 0.00933,-0.01153 0.030728,-0.03729 0.065647,-0.06065 0.098496,-0.07186 -0.066973,-0.08842 -0.1289446,-0.179455 -0.1814399,-0.275022 -0.03119,-0.05675 -0.05085,-0.09768 -0.070502,-0.141946 z m 0.3701375,0.565125 c -0.00568,0.0093 -0.012713,0.01865 -0.020736,0.02839 -0.025214,0.03059 -0.048941,0.06218 -0.071539,0.09404 0.00887,0.01184 0.018067,0.02373 0.026957,0.03549 0.05501,0.03809 0.1083927,0.07226 0.1638144,0.107347 0.015996,0.0012 0.031766,0.0026 0.047693,0.0035 0.037947,0.0052 0.075322,0.0096 0.1130111,0.01508 C 5.5587107,19.495002 5.489409,19.42011 5.421332,19.344399 5.404166,19.324639 5.387362,19.304939 5.370529,19.284959 Z" /><rect
         style="display:inline;fill:#808080;fill-opacity:1;stroke-width:0.0548669"
         id="rect43"
         width="18.155813"
         height="7.7733192"
         x="4.9628139"
         y="12.566384"
         ry="1.0009203" /><path
         style="fill:#808080;fill-opacity:1;stroke:#000000;stroke-width:0.501097;stroke-dasharray:none;stroke-opacity:1"
         d="m 27.252099,13.965544 v 5.257899"
         id="path44" /></g></g><g
     inkscape:label="Слой 1"
     inkscape:groupmode="layer"
     id="layer1"
     transform="translate(26.408849,108.20074)"><rect
       style="opacity:1;fill:#333333;stroke-width:0.264583"
       id="rect5"
       width="2.7388506"
       height="19.223633"
       x="-25.698233"
       y="-33.926937"
       ry="1.1217461"
       inkscape:label="button left" /><rect
       style="opacity:1;fill:#333333;stroke-width:0.264583"
       id="rect6"
       width="2.1193638"
       height="38.587036"
       x="-25.79435"
       y="3.5319743"
       ry="1.0596819"
       inkscape:label="button left" /><rect
       style="opacity:1;fill:#333333;stroke-width:0.264583"
       id="rect7"
       width="1.9001193"
       height="39.025528"
       x="-25.648186"
       y="53.300488"
       ry="0.95005965"
       inkscape:label="button left" /><rect
       style="opacity:1;fill:#333333;stroke-width:0.264583"
       id="rect8"
       width="1.8270345"
       height="61.826954"
       x="203.82777"
       y="17.052053"
       ry="0.95005965"
       inkscape:label="button right" /><rect
       style="opacity:1;fill:#4d4d4d;stroke-width:0.264583"
       id="rect2"
       width="227.54324"
       height="467.77286"
       x="-23.742504"
       y="-107.48821"
       ry="36.1735"
       inkscape:label="border" /><rect
       style="opacity:1;fill:#000000;stroke-width:0.264583"
       id="rect3"
       width="220.63721"
       height="459.51593"
       x="-20.453836"
       y="-103.46873"
       ry="31.832682"
       inkscape:label="screen" /><rect
       style="opacity:1;fill:#666666;stroke-width:0.264583"
       id="rect15"
       width="39.480797"
       height="2.8938777"
       x="70.257553"
       y="-102.72601"
       ry="1.188558"
       inkscape:label="Динамик" /><rect
       style="opacity:1;fill:#666666;stroke-width:0.264583"
       id="rect9"
       width="5.4811134"
       height="4.0925646"
       x="154.49776"
       y="-107.55191"
       ry="0" /><rect
       style="opacity:1;fill:#666666;stroke-width:0.264583"
       id="rect10"
       width="3.6173501"
       height="5.3226724"
       x="200.1721"
       y="-61.100636" /><rect
       style="opacity:1;fill:#666666;stroke-width:0.264583"
       id="rect11"
       width="3.6175346"
       height="5.371491"
       x="200.17369"
       y="309.08575" /><rect
       style="opacity:1;fill:#666666;stroke-width:0.264583"
       id="rect12"
       width="5.371491"
       height="4.2021871"
       x="20.210461"
       y="356.07718" /><rect
       style="opacity:1;fill:#666666;stroke-width:0.264583"
       id="rect13"
       width="3.2556155"
       height="5.2709961"
       x="-23.716036"
       y="309.13516" /><rect
       style="opacity:1;fill:#666666;stroke-width:0.264583"
       id="rect14"
       width="3.3072915"
       height="5.3743491"
       x="-23.79355"
       y="-61.074799" /><circle
       style="opacity:1;fill:url(#radialGradient23)"
       id="path17"
       cx="55.865669"
       cy="-88.592499"
       r="2.5063069" /><g
       style="fill:none"
       id="g32"
       transform="matrix(0.48256164,0,0,0.51427827,165.55945,-104.56007)"><path
         fill-rule="evenodd"
         clip-rule="evenodd"
         d="M 4.2565888,40.607388 C 0.83097892,36.896763 -6.2111254,36.872872 -9.6798768,40.613321 L -11.493621,38.9217 C -7.0552853,34.318884 1.6927944,34.347772 6.0816596,38.91139 Z m -1.4413012,1.33945 -1.83423239,1.704684 c -1.67649292,-2.207953 -5.70024361,-2.227316 -7.41005061,-0.0064 l -1.8214061,-1.698594 c 2.6997127,-3.066353 8.40445371,-3.0434 11.0656891,3.12e-4 z m -3.41111896,3.170146 -2.13105324,1.980443 -2.1415475,-1.99715 c 0.8233394,-1.541976 3.4854074,-1.523239 4.27260074,0.0167 z"
         fill="#000000"
         id="path1"
         style="fill:#ffffff;stroke-width:0.161275" /></g><text
       xml:space="preserve"
       style="font-style:normal;font-variant:normal;font-weight:normal;font-stretch:normal;font-size:8.46667px;line-height:0;font-family:'Comic Sans MS';-inkscape-font-specification:'Comic Sans MS';text-align:start;writing-mode:lr-tb;direction:ltr;text-anchor:start;white-space:pre;inline-size:32.184;display:inline;opacity:1;fill:#ffffff;fill-opacity:1"
       x="19.732008"
       y="-63.43475"
       id="text30"
       transform="translate(-17.525751,-16.896014)"><tspan
         x="19.732008"
         y="-63.43475"
         id="tspan4">8:26</tspan></text><g
       id="g2"
       transform="matrix(0.38491332,0,0,0.3470021,147.70699,-87.427554)"
       style="fill:#ffffff"><path
         d="m 15.553,13.5 -5.053,8 h -2 l 2.526,-8 H 5.666 L 4,16.5 H 2.5 L 3.5,12 2.5,7.5 H 4 l 1.667,3 h 5.36 L 8.5,2.5 h 2 l 5.053,8 H 21 a 1.5,1.5 0 0 1 0,3 z"
         id="path2"
         style="fill:#ffffff" /></g><rect
       style="fill:#f9f9f9;fill-opacity:1;stroke:#000000;stroke-width:0.269999;stroke-dasharray:none;stroke-opacity:1"
       id="rect28"
       width="73.467949"
       height="3.2432716"
       x="53.387314"
       y="341.60059"
       ry="1.0121177"
       rx="0" /><g
       style="display:inline;fill:#000000"
       id="g1"
       transform="matrix(0.49842253,0,0,0.58248817,169.94868,-92.776088)"><path
         id="path1-8"
         style="fill:#4d4d4d"
         d="m 5.0003907,10.999752 c -1.105,0 -1.9999866,0.896561 -1.9999866,2.000561 v 6.999749 c 0,1.104 0.8949866,1.999674 1.9999866,1.999674 H 25.000257 c 1.104,0 1.999987,-0.895674 1.999987,-1.999674 v -0.999838 h 0.999475 c 0.552,0 1.000511,-0.447837 1.000511,-0.999837 v -3.000399 c 0,-0.553 -0.448511,-0.999837 -1.000511,-0.999837 h -0.999475 v -0.999838 c 0,-1.104 -0.895987,-2.000561 -1.999987,-2.000561 z m 0,0.999837 H 25.000257 c 0.552,0 0.999475,0.447724 0.999475,1.000724 v 6.999749 c 0,0.552 -0.447475,0.999837 -0.999475,0.999837 H 5.0003907 c -0.553,0 -1.0005117,-0.447837 -1.0005117,-0.999837 v -6.999749 c 0,-0.553 0.4475117,-1.000724 1.0005117,-1.000724 z m 0.2654207,1.000724 c -0.046393,0.09358 -0.086794,0.189434 -0.1275263,0.284781 -0.056349,0.137944 -0.1010068,0.278459 -0.1378944,0.420517 v 3.342846 c 0.036937,0.182946 0.079441,0.365383 0.1316736,0.545607 0.062999,0.217181 0.094363,0.29761 0.1689983,0.512783 0.1908822,0.501653 0.4118904,0.995047 0.6500734,1.481569 0.016262,0.01605 0.032301,0.032 0.04873,0.04791 0.065221,0.01268 0.1307157,0.02535 0.1959552,0.03726 0.1466731,0.02681 0.2284557,0.0409 0.3431807,0.06033 -0.00413,-0.0489 0.046324,-0.09464 0.1441151,-0.09226 0.012519,3.04e-4 0.026351,0.0016 0.040435,0.0035 0.00348,4.9e-4 0.00689,0.0013 0.010368,0.0018 -0.023854,-0.0056 -0.047661,-0.01144 -0.071539,-0.01686 -0.2207966,-0.05006 -0.1616593,-0.240957 0.059098,-0.190741 0.316017,0.07187 0.6317672,0.155107 0.9237886,0.283006 0.00286,0.0016 0.00551,0.0029 0.00829,0.0044 0.025413,-0.03042 0.078542,-0.05293 0.1575935,-0.05146 0.3298206,0.0062 0.6595271,0.01248 0.9891069,0.02484 0.5559942,0.0216 1.1116448,0.05074 1.666137,0.09227 0.177902,0.01181 0.35586,0.02332 0.533952,0.03282 v -6.824977 z m -0.2654207,4.936198 v 0.204048 c 0.043959,0.01243 0.084749,0.05345 0.097459,0.126865 0.016653,0.09543 0.035727,0.190123 0.07465,0.281232 0.038321,0.0885 0.056531,0.137007 0.1036799,0.223566 0.044808,0.08235 0.097606,0.161362 0.1544832,0.237761 C 5.3055934,18.730524 5.187356,18.448489 5.0791875,18.163626 5.0467664,18.070012 5.0225061,18.001634 5.0003907,17.936511 Z m 0,0.783369 v 0.307846 c 0.028041,0.01621 0.055094,0.0431 0.076723,0.08162 0.021037,0.0375 0.043534,0.07464 0.067392,0.110896 0.00302,-0.0037 0.00627,-0.0078 0.00933,-0.01153 0.030728,-0.03729 0.065647,-0.06065 0.098496,-0.07186 -0.066973,-0.08842 -0.1289446,-0.179455 -0.1814399,-0.275022 -0.03119,-0.05675 -0.05085,-0.09768 -0.070502,-0.141946 z m 0.3701375,0.565125 c -0.00568,0.0093 -0.012713,0.01865 -0.020736,0.02839 -0.025214,0.03059 -0.048941,0.06218 -0.071539,0.09404 0.00887,0.01184 0.018067,0.02373 0.026957,0.03549 0.05501,0.03809 0.1083927,0.07226 0.1638144,0.107347 0.015996,0.0012 0.031766,0.0026 0.047693,0.0035 0.037947,0.0052 0.075322,0.0096 0.1130111,0.01508 C 5.5587107,19.495002 5.489409,19.42011 5.421332,19.344399 5.404166,19.324639 5.387362,19.304939 5.370529,19.284959 Z" /><rect
         style="display:inline;fill:#e0b900;fill-opacity:1;stroke-width:0.0548669"
         id="rect1"
         width="18.155813"
         height="7.7733192"
         x="4.9628139"
         y="12.566384"
         ry="1.0009203" /><path
         style="fill:#e0b900;fill-opacity:1;stroke:#000000;stroke-width:0.501097;stroke-dasharray:none;stroke-opacity:1"
         d="m 27.252099,13.965544 v 5.257899"
         id="path9" /></g></g></svg>
